<svg width="499" height="159" viewBox="0 0 499 159" fill="none" xmlns="http://www.w3.org/2000/svg">
<g filter="url(#filter0_d_10_103)">
<path d="M135.835 27.3627C135.34 29.0671 135.34 29.8657 136.555 31.2987C138.5 33.5965 144.855 34.736 145.608 36.2889C145.873 36.8412 145.332 37.3652 146.037 37.7566C146.808 37.5199 149.473 35.0831 150.157 35.5598C147.728 38.533 145.504 42.3775 145.131 46.1051C144.93 48.1157 144.69 53.6836 144.895 55.5332C144.973 56.2465 145.747 57.1619 145.876 58.3992C146.636 65.6462 145.178 72.9531 146.267 80.4368C147.259 87.2546 150.218 99.4539 160.98 96.9383C168.284 95.2307 164.516 86.7054 158.039 89.4577C157.82 87.2388 159.307 87.1189 161.449 87.2388C167.872 87.5923 169.244 95.3664 163.133 97.8852C151.268 102.778 141.147 89.7702 137.461 81.5731C133.348 72.4323 135.928 64.6487 135.107 55.2428C134.921 53.1123 134.061 53.2511 133.52 51.9318C132.919 50.4609 134.713 50.0001 135.043 48.5639C135.29 47.5003 135.315 43.4412 134.785 42.63C134.416 42.065 129.286 38.0375 128.899 38.0912C128.29 38.391 127.932 38.8518 127.946 39.4768C128.609 50.8618 127.19 62.8686 127.806 74.1683C127.914 76.1347 128.566 77.5204 129.716 79.168C124.665 82.64 123.027 86.5917 122.598 92.1406C122.49 93.5168 122.909 98.8668 122.415 99.5454C122.189 99.8548 121.92 99.9179 121.519 99.8579C121.39 96.872 121.68 93.8482 121.534 90.8623C121.458 89.3378 121.326 86.3645 121.003 85.0262C120.53 83.0629 116.529 79.7645 116.515 79.2217C116.5 78.6788 117.475 77.2489 117.596 76.0716C118.686 65.5799 116.769 53.6236 117.564 42.9772C117.439 41.9451 113.831 37.886 113.115 37.8355C112.696 37.8039 110.643 39.4326 110.406 39.7893C109.683 40.8782 110.733 44.0567 110.783 45.4802C110.847 47.1909 110.797 49.6182 110.801 51.4552C110.808 54.3748 109.708 62.8528 110.99 64.8413C111.32 65.3495 112.463 65.9555 112.538 66.3311C112.588 66.5868 111.209 68.3259 110.965 68.9698C109.812 72.0441 110.353 78.3978 111.316 81.5763C111.539 82.3149 112.961 85.0009 112.932 85.1935C112.843 85.7458 112.377 85.5375 111.979 85.4144C109.794 84.739 106.133 82.5485 103.621 83.6216C103.285 83.7637 100.075 88.1605 99.3189 88.9716C91.6059 97.2571 79.4972 102.004 69.255 93.7125C61.7498 87.6365 58.4432 74.7175 67.8507 68.8278C76.1047 63.6576 86.9272 70.5953 82.6892 78.4262C80.2567 82.9241 72.7945 81.4974 73.9767 78.0191C74.7899 75.6266 75.4097 78.9281 75.8503 79.3953C77.5376 81.1849 80.941 78.7103 81.3494 76.9301C83.5024 67.6063 70.4301 65.6367 65.6189 73.1678C57.4437 85.9636 77.7096 105.483 91.4447 91.8092C92.5552 90.7013 95.6289 86.7464 96.0338 85.446C96.1054 85.2156 96.2953 84.7642 95.9335 84.7263C93.329 87.3714 85.2435 88.514 83.3197 84.7989C82.5029 83.2176 83.0868 81.1186 85.3688 81.2607C83.7568 85.405 88.7614 85.8279 91.9355 84.0446C97.2769 81.046 100.189 74.4871 100.422 69.1339C100.583 65.3747 100.562 61.4103 96.109 59.6617C95.8905 59.021 96.5317 59.163 97.0046 59.1883C98.0972 59.2482 98.9535 59.8637 100.046 59.8227C99.9601 54.479 100.408 48.6334 98.7958 43.4286C97.1013 37.9491 89.8361 31.0399 83.2122 35.7018C77.4517 39.7546 78.3007 53.6583 85.6411 56.2718C87.8443 57.0577 90.4882 56.4801 90.026 54.0087C89.915 53.4026 89.1949 53.2038 89.3059 52.5757C93.5117 52.339 92.2543 57.5217 88.6862 58.1751C81.9297 59.4092 77.749 51.25 77.4767 46.4397C77.38 44.7353 77.9138 43.2518 77.8529 41.7115C77.8063 40.5436 77.1185 39.1012 77.1006 37.9112C77.0146 31.4912 82.2557 25.2858 88.5715 22.4546C103.156 15.9146 119.316 25.0712 126.363 36.4972C127.384 36.7087 133.757 28.9283 134.563 27.6468L135.838 27.3564L135.835 27.3627ZM79.2715 38.0754C83.2015 29.2092 98.3695 29.6227 105.416 35.3925C106.14 35.9859 107.501 38.1795 108.067 38.0691L115.773 31.6175C108.597 23.9317 99.652 18.5943 88.4712 24.2726C83.9323 26.5799 79.3324 31.6048 78.9025 36.3362C78.8703 36.6897 78.6446 38.0848 79.268 38.0785L79.2715 38.0754Z" fill="#FFB600"/>
<path d="M324.855 72.7542C323.959 72.8079 324.239 72.8332 324.149 72.2808C323.53 68.5784 323.243 64.8034 322.706 61.0947C322.082 61.0221 322.369 61.8112 322.351 62.1931C322.075 68.127 322.992 74.1651 321.634 80.0044C328.566 79.3731 334.23 82.359 339.891 85.3639C339.819 81.6425 339.357 77.9023 339.16 74.1904C339.142 73.8621 338.991 70.8415 339.891 71.8105C340.589 73.5307 342.878 85.4965 343.505 85.9668C343.774 86.1688 345.171 85.9668 345.633 85.85C346.869 85.5343 348.227 83.7857 349.191 84.8936L342.936 97.6674C341.839 97.8978 342.029 97.0519 341.313 96.5753C334.008 91.705 319.668 85.2503 310.389 86.3424C309.099 86.4939 307.946 87.283 306.603 87.2609C307.373 85.6069 309.246 84.7863 310.328 83.1387C312.499 79.8371 312.822 67.1612 312.327 63.1463C311.915 59.7879 308.164 57.0261 304.31 57.3165C303.955 57.3512 304.027 56.6852 304.084 56.5274C304.274 56.0066 310.654 52.2947 311.908 52.2221C311.754 47.6075 313.456 39.9976 307.405 37.8512C306.552 37.5482 302.329 37.0401 303.02 36.2005C304.145 34.8306 313.878 37.0527 315.734 37.9807L321.989 32.1035C310.898 28.4232 300.82 20.264 288.203 21.4193C271.484 22.9532 284.889 40.2343 295.518 35.4272C298.513 34.0731 298.66 30.4906 296.446 30.8978C295.981 30.983 294.634 32.6559 295.031 30.8978C295.404 29.247 298.159 29.2944 299.226 30.8599C300.573 32.8358 299.183 35.1273 297.263 36.333C290.113 40.8277 277.198 33.4387 278.756 25.7087C278.896 25.0207 279.752 23.9033 279.67 23.4835C279.559 22.8964 278.136 21.8769 277.957 20.5828C277.814 19.5349 280.293 20.6964 281.027 20.7217C283.467 20.8006 289.332 18.0925 292.853 17.6379C294.132 17.4706 299.14 17.5306 299.452 17.4265C299.928 17.2686 305.667 12.7235 307.34 11.7955C318.575 5.54909 336.279 4.43489 346.167 13.4905C355.657 22.1831 347.55 29.7331 343.917 38.3279C342.936 40.6509 341.839 43.1666 341.678 45.6569C339.887 45.5559 340.761 42.9614 340.6 41.7209C340.417 40.3006 338.927 36.6108 337.523 35.9196C336.369 35.3514 331.909 35.0894 330.211 34.7927C328.928 34.5686 325.722 33.4323 324.962 33.4229C323.992 33.4103 322.706 35.3419 322.706 36.0427V51.6477L324.321 44.71C325.124 44.4386 324.834 45.436 324.855 45.8116C324.97 47.8569 324.622 49.9212 325.263 51.9191C329.347 53.0112 332.976 52.4336 337.028 51.6477L333.03 57.1082C331.866 58.9389 331.783 60.8453 331.303 62.8401C330.798 63.1431 329.312 60.9684 328.255 60.7948C326.994 60.5865 324.862 60.4381 324.862 61.8901V72.7669L324.855 72.7542ZM300.874 17.5874C314.251 17.2971 328.882 27.7793 341.814 26.6904C351.598 25.8666 349.631 17.6695 343.799 13.3611C334.28 6.32871 316.916 6.51493 307.126 13.1685L300.874 17.5874Z" fill="#FFB600"/>
<path d="M175.574 85.992C176.413 85.7995 176.173 86.1656 176.395 86.3929C178.551 88.5992 179.795 91.5693 179.515 94.5047C187.508 92.188 196.177 90.1206 204.495 88.9212C226.617 85.7301 251.522 87.4534 273.307 91.8218C279.175 92.9992 287.343 95.7988 292.853 96.3607C295.145 96.5943 297.087 96.5879 298.542 94.8267C299.649 95.5937 298.509 97.497 299.885 98.0714C313.62 101.733 326.832 107.013 340.689 110.35C349.233 112.408 360.521 112.461 368.772 109.378C385.24 103.219 374.077 83.8678 358.927 87.7849C350.401 89.9912 351.221 101.793 360.45 100.47C362.656 100.155 361.36 98.709 363.158 98.9173C363.369 103.857 356.294 102.752 353.324 100.489C346.733 95.4706 351.913 86.7085 359.851 85.7616C378.606 83.5238 387.676 104.996 367.45 112.629C354.628 117.464 339.772 116.189 326.825 112.468C325.811 112.344 326.47 113.777 326.223 114.469C325.639 116.107 324.908 114.005 324.496 113.575C321.204 110.135 307.87 106.644 302.572 105.142C273.192 96.7931 234.086 89.7071 203.363 93.6052L195.976 95.136C206.709 94.2364 217.593 93.6336 228.337 94.8614C228.906 94.9277 230.289 94.9687 229.985 95.7704C219.427 95.1423 208.511 95.2749 198.051 96.8089C183.019 99.0152 151.203 105.438 143.777 118.367C136.995 130.172 153.202 134.319 160.686 125.061C162.466 122.861 163.391 117.726 159.278 117.502C158.465 117.458 154.692 118.433 157.121 116.565C159.02 115.103 162.574 116.176 163.584 118.152C168.256 127.325 148.91 137.141 141.982 128.347C134.731 119.143 150.698 107.212 158.561 102.702C162.198 100.615 175.574 95.3317 175.574 91.2032V86.0015V85.992Z" fill="#FFB600"/>
<path d="M238.937 75.1184C239.037 75.5288 241.312 77.7193 241.67 77.7761C242.394 77.8866 243.121 76.441 243.831 76.2705C244.318 76.1537 245.02 76.4125 245.016 76.6935C245.006 77.3311 238.041 83.4954 236.97 84.4108L229.082 77.1732C228.777 76.583 230.11 75.8823 230.275 75.3678C230.464 74.7807 230.669 72.1862 230.722 71.3466C231.145 64.7908 229.816 57.9289 230.35 51.3164C228.666 51.3037 226.979 51.471 225.356 51.007L219.671 59.0431C222.2 61.5398 225.288 63.2442 226.305 66.6973C228.58 74.4493 219.814 79.7078 214.032 84.0857C213.434 84.2088 213.004 83.1167 212.43 82.7C210.571 81.3365 205.341 79.3543 202.98 79.6825C201.855 79.8372 200.967 82.3623 199.921 81.2639C199.369 80.6863 208.837 70.2608 209.539 68.7552C205.248 64.2574 200.121 59.6334 204.273 53.4185L214.469 44.4292L215.307 44.3787C214.963 45.698 216.812 46.6039 217.983 47.2257C219.531 48.0432 222.852 49.5267 224.528 48.9017C225.535 48.5261 226.982 44.9658 227.656 48.4788C228.455 48.1063 228.791 46.8659 229.246 46.4777C229.63 46.1494 230.267 46.4114 230.368 46.0926C230.543 45.5276 230.482 40.0071 230.361 39.1644C230.314 38.8266 230.382 38.4384 230.006 38.2143C225.954 37.5452 221.852 37.0401 217.804 36.3489C204.313 34.0416 190.366 29.9162 176.567 32.1794C173.217 32.7286 168.517 33.7039 167.159 36.8224C164.508 42.9141 172.923 45.758 178.193 42.7532C181.722 40.7426 180.826 36.0522 176.85 36.5067C175.8 36.6267 175.456 37.4063 174.492 37.4442C175.245 34.0669 180.84 35.4525 181.575 38.2995C183.287 44.9563 169.789 47.7907 166.199 41.7589C163.007 36.4026 168.187 32.0436 173.532 30.1404C179.726 27.9341 191.226 27.5963 197.936 27.994C199.046 28.0603 204.993 29.1429 205.28 28.9346C205.341 28.8904 204.556 27.732 205.455 27.6847C205.652 27.6752 208.293 29.0956 208.97 29.3134C209.98 29.6353 211.04 29.8026 212.076 30.0457C218.789 31.6144 225.804 32.3435 232.646 33.3598C234.47 33.1515 238.718 26.258 240.896 25.4658C241.384 25.6741 240.932 26.3275 240.796 26.6368C240.166 28.0635 239.438 29.2345 239.091 30.8095C238.854 31.8827 239.13 32.9653 238.575 33.9753C249.351 35.7429 259.772 35.4083 270.502 33.565C272.931 33.1484 276.037 32.0089 278.15 31.7817C278.856 31.7059 278.691 31.87 278.67 32.3971C272.469 34.9601 266.149 37.4315 259.346 38.5552C252.787 39.6378 245.503 40.045 238.933 39.3348V45.9537H245.199C245.342 45.9537 246.686 46.2346 246.449 46.7365C246.335 46.9858 242.781 50.6946 242.544 50.865C241.387 51.6856 238.937 51.1491 238.937 51.3132V75.1121V75.1184ZM220.681 54.7883C218.907 54.5043 217.234 54.116 215.594 53.4311C214.369 52.9198 212.495 51.3921 211.725 51.1554C211.298 51.0228 211.18 51.2406 211.08 51.531C209.887 55.0409 211.775 59.8164 215.135 62.0322L220.681 54.7883ZM217.811 78.4263C219.208 73.8717 219.126 68.6732 214.243 65.8167L207.791 74.3262C211.649 74.3578 214.745 76.6651 217.811 78.4263Z" fill="#FFB600"/>
<path d="M236.437 101.124C237.046 99.397 234.434 98.9898 233.535 99.9904C231.167 102.623 239.603 107.654 241.542 107.383C243.182 107.152 247.47 103.021 247.56 101.6C247.603 100.887 247.123 100.262 247.173 99.5517C247.979 99.5675 247.986 100.985 248.778 100.814C249.079 100.748 249.319 99.5769 250.032 99.5517C250.254 100.287 249.344 100.934 249.398 101.547C249.538 103.118 254.678 107.629 256.573 107.379C258.583 107.114 264.666 103.169 264.29 101.038C263.95 99.1193 260.267 98.7405 260.772 101.13C258.558 99.154 262.363 97.4054 264.541 98.9173C266.687 100.41 265.952 103.166 266.146 103.336C266.239 103.418 268.213 103.279 268.804 103.361C274.199 104.128 275.123 109.551 282.095 109.336C287.956 109.156 290.746 104.018 296.468 106.423C299.713 107.787 301.383 111.65 296.937 112.158C296.725 111.202 297.936 111.581 298.187 110.624C298.474 109.523 296.872 107.749 295.769 107.354C291.796 105.928 289.786 109.09 286.87 110.391C283.406 111.934 279.816 111.827 276.173 110.899C276.556 113.771 273.938 118.319 270.269 118.168C267.224 118.042 265.397 114.636 267.045 112.477C268.202 116.918 271.405 110.681 267.736 110.296C261.793 109.671 258.712 118.717 266.146 119.251C263.004 120.939 259.31 118.461 259.318 115.469C259.328 111.281 266.651 105.296 270.448 109.794C272.454 112.174 271.43 114.273 268.664 115.469C273.246 118.203 275.199 111.363 273.117 108.389C270.724 104.968 266.128 104.82 262.599 106.985C261.112 107.9 251.408 115.308 251.153 116.164C251.057 116.482 251.143 116.612 251.282 116.883C251.454 117.212 255.381 121.409 255.943 121.937C256.563 122.517 260.536 124.938 260.063 125.399C255.183 126.491 251.357 132.312 250.215 136.431C249.677 138.372 249.663 140.316 249.326 142.27C249.007 144.123 248.434 144.151 248.237 142.276C247.478 135.127 245.636 128.656 237.511 125.554L240.721 123.029C241.309 121.652 246.288 117.3 245.962 116.252C245.59 115.043 236.315 108.017 234.61 106.988C231.353 105.025 227.76 104.801 224.966 107.581C222.723 109.81 222.773 115.621 226.574 115.965C230.504 116.321 227.144 114.772 226.599 114.039C225.399 112.426 226.073 109.624 228.064 108.734C234.173 106 241.853 115.898 235.702 119.241C234.624 119.828 233.126 120.166 231.926 119.765C230.135 119.162 232.568 119.074 233.148 118.888C239.131 116.95 233.119 108.579 228.906 110.425C227.728 110.943 227.323 113.781 229.089 114.058C230.726 114.314 229.383 113.02 230.701 112.477C231.489 114.292 231.052 116.489 228.917 117.363C223.787 119.462 220.703 114.529 221.394 110.583C217.529 112.231 213.348 111.858 209.694 110.015C206.867 108.588 206.509 107.083 202.579 107.414C200.652 107.578 198.57 109.216 199.247 111.025C199.469 111.618 200.576 111.249 200.275 112.161C196.295 111.792 197.384 108.405 200.157 106.855C206.015 103.579 208.974 108.945 214.423 109.321C222.949 109.905 223.332 102.541 231.421 103.336C230.622 101.13 232.173 97.9672 235.147 98.2986C236.816 98.4848 238.117 100.136 236.437 101.13V101.124ZM248.423 104.911L244.035 109.156C243.988 109.68 248.234 113.471 248.732 113.392C249.47 112.931 252.962 109.655 252.873 109.204L248.423 104.911ZM249.276 119.137C248.972 118.982 248.534 119.071 248.241 119.244C247.933 119.427 243.938 124.282 243.938 124.61C245.611 126.785 247.646 128.843 248.61 131.387C248.979 131.63 252.683 125.017 253.561 124.553L249.276 119.137Z" fill="#FFB600"/>
<path d="M371.394 49.1132C371.183 50.8114 369.832 51.9066 369.607 53.6805C369.374 55.5017 369.313 58.3614 369.234 60.2867C369.033 65.3274 369.474 70.3839 369.256 75.4246C369.349 75.9612 371.659 78.0381 371.982 78.0886C372.168 78.117 375.496 75.5793 374.973 77.6341C374.858 78.0823 368.686 83.5838 367.636 84.1109C367.188 84.1109 361.539 79.6352 361.209 79.0387C360.88 78.4421 360.701 77.0754 360.64 76.3873C360.149 70.81 361.424 64.5099 361.027 58.7086C360.819 55.65 360.174 53.2733 356.943 51.6541C354.406 53.6142 353.575 53.974 353.88 57.1209C354.102 59.4314 353.894 59.7154 353.84 61.8649C353.758 64.9992 353.249 74.9165 354.84 77.088C355.323 77.7477 356.205 77.7256 355.993 78.259C355.639 79.1554 350.534 82.154 349.735 83.4639C348.624 82.0877 344.297 79.3606 343.835 77.9466C343.548 77.0691 345.042 77.6656 345.264 77.4826C345.726 77.0975 345.221 67.7926 345.246 66.2775C345.3 62.8055 345.583 60.4793 345.235 56.8368C345.167 56.133 345.558 55.246 345.436 54.741C345.343 54.3496 343.136 52.2538 342.749 52.0802C342.362 51.9066 339.88 53.2859 340.252 51.793C340.395 51.2154 346.761 46.342 347.635 45.3477C348.108 45.2719 351.304 48.8071 351.852 49.451C352.4 50.0949 353.013 50.805 353.142 51.6289C353.683 51.7583 353.733 51.5026 354.037 51.3195C355.424 50.4768 360.883 44.8301 361.596 44.7164L362.445 45.1678C363.155 45.8811 367.654 50.562 368.059 50.6567C369.162 50.9092 370.051 48.9459 371.394 49.1101V49.1132Z" fill="#FFB600"/>
<path d="M165.193 55.1009C162.288 53.7721 155.75 48.9744 152.647 51.4616C149.821 53.7279 153.36 55.9058 153.371 57.1494C153.385 58.6455 151.071 56.1141 150.813 55.6248C149.011 52.2002 150.104 48.1159 153.851 46.2094C159.425 43.375 163.993 45.9632 168.675 48.7219C169.392 49.1448 172.68 51.5595 172.945 51.6036C173.723 51.7267 174.618 49.9182 175.22 50.2085C175.99 50.7199 175.317 50.9345 175.077 51.348C174.554 52.2507 173.927 52.9135 173.776 53.9867C172.895 60.3468 174.436 68.2566 173.802 74.7839C173.945 75.4752 176.503 78.4106 177.194 78.3506C177.434 78.3317 178.588 76.9681 179.154 77.4795C180.322 78.5337 173.905 82.6496 173.257 83.8016C173.074 83.9816 172.881 84.1236 172.58 84.0762C171.878 83.9658 166.73 79.1807 165.73 78.4295C164.186 79.8404 162.123 81.0272 160.525 82.3529C159.963 82.82 159.339 84.1899 158.619 84.0762C155.456 81.2923 151.802 79.4206 150.623 75.3363C149.867 72.7165 149.38 68.1272 150.437 65.5863C151.178 63.7998 157.19 59.1821 157.233 58.7275C157.312 57.8595 153.808 56.1172 155.348 55.104L165.196 63.2916V55.0946L165.193 55.1009ZM159.11 60.4604C158.461 64.57 158.178 68.7269 158.816 72.8491L163.577 77.7888C164.129 77.2427 165.01 76.8387 165.179 76.0559C165.383 75.1185 165.365 66.7826 165.114 66.0408C164.752 64.9645 159.948 61.8429 159.106 60.4604H159.11Z" fill="#FFB600"/>
<path d="M400.748 54.7853C400.354 54.8547 399.068 54.6906 398.957 54.7853C398.746 54.9684 399.018 59.1695 398.975 59.9996C398.757 64.0997 398.47 68.1367 398.968 72.2715C398.993 73.3699 400.77 73.0322 400.362 74.1401L386.318 83.7449C383.553 81.971 380.561 80.4181 377.878 78.5527C375.453 76.8672 373.816 76.1822 373.533 73.2373C373.246 70.2641 373.895 67.2497 373.92 64.4153C373.945 61.461 373.597 58.5729 373.561 55.628C373.397 55.0346 371.638 55.5333 372.161 54.3592C372.838 52.8441 382.904 48.8513 384.015 46.5125C384.821 44.8175 384.789 33.3378 385.541 33.3505C386.125 33.3063 386.34 33.7071 386.429 34.1427C386.745 35.6799 386.322 38.1229 386.415 39.8273C386.519 41.6832 386.938 43.7317 386.963 45.6508C390.087 46.9165 392.616 48.4505 395.343 50.2496C396.113 50.7578 400.157 53.3681 400.412 53.6648C400.741 54.0499 400.827 54.3024 400.745 54.7853H400.748ZM382.492 49.4258V73.5404C382.492 74.2 388.339 79.2313 390.008 78.7389C389.965 70.7123 390.173 62.7172 389.933 54.6937C389.74 53.5196 383.112 48.8166 382.492 49.4258Z" fill="#FFB600"/>
<path d="M298.721 54.7853L296.937 54.4728C296.973 59.4251 296.163 64.4627 296.579 69.4402C296.632 70.0999 296.844 72.06 297.005 72.5335C297.188 73.0764 298.18 73.3194 298.033 74.1464C297.904 74.866 286.168 80.1876 285.498 83.3282C285.101 85.1841 285.358 87.4946 285.133 89.3127C285.075 89.783 285.058 90.2848 284.406 90.4048C283.968 88.9781 284.112 83.7354 283.506 82.8421C283.281 82.5076 278.573 80.1245 277.631 79.5027C276.564 78.802 269.979 74.0706 269.728 73.5372C269.259 72.5429 271.391 73.5119 271.512 73.3825C271.305 72.2462 271.81 71.1857 271.889 70.0873C272.05 67.7768 272.222 56.1362 271.505 54.719C271.258 54.2297 270.287 54.3086 270.445 53.6868C270.62 52.9893 281.74 48.22 283.159 45.0195C283.829 43.5108 283.524 41.6548 283.829 40.1145C283.9 39.7578 283.793 39.417 284.402 39.338C284.853 41.3045 284.413 43.4508 285.326 45.3036C288.027 46.7839 290.671 48.321 293.165 50.0633C294.54 51.026 297.087 52.7715 298.198 53.8289C298.524 54.1382 298.854 54.2771 298.721 54.7821V54.7853ZM287.984 78.4264V54.6274C287.984 53.911 282.066 49.0533 280.468 49.4258C280.554 54.5201 280.354 59.6303 280.451 64.7246C280.476 66.0187 280.848 67.3381 280.837 68.8247C280.827 70.6049 279.885 71.5581 280.941 73.4299C281.475 74.3705 287.25 79.1397 287.981 78.4232L287.984 78.4264Z" fill="#FFB600"/>
<path d="M425.887 46.9763C426.804 46.5375 427.721 46.9163 427.083 47.8664C426.274 49.757 419.008 57.8562 419.005 59.0462C419.001 59.9079 421.194 60.8958 421.889 61.5492C431.583 70.649 421.595 78.5903 413.051 84.0666C412.42 84.2655 412.463 83.4701 411.872 82.984C409.916 81.3774 404.722 79.3952 402.081 79.7487C400.949 79.9002 400.007 82.318 398.961 81.2638C398.399 80.6956 408.283 70.4848 408.544 68.7615C406.946 65.9807 404.034 64.8823 402.794 61.6533C399.846 53.9644 406.119 51.7297 411.138 47.071C411.682 46.5659 413.273 44.4985 413.817 44.3849C414.262 44.2934 415.261 45.9852 416.021 46.5344C417.267 47.4371 422.677 49.817 424.038 49.2646C424.597 49.0374 425.6 47.112 425.879 46.9794L425.887 46.9763ZM419.721 54.7883C416.25 54.2548 413.201 52.8408 410.418 51.0038C409.332 55.0408 410.432 59.3997 414.172 62.0321C414.881 61.2083 420.011 55.1449 419.721 54.7914V54.7883ZM407.193 74.3261C409.762 74.5723 412.123 75.5508 414.254 76.7786C416.393 78.0064 417.167 80.0928 417.586 75.7591C417.973 71.7789 417.421 68.49 413.814 65.826L407.193 74.3261Z" fill="#FFB600"/>
<path d="M190.481 45.0351L201.343 54.6178C200.412 57.2376 187.053 71.2866 187.429 72.5333C187.672 73.3319 193.806 76.6997 194.726 77.7729C196.607 76.6208 199.348 74.3135 201.347 73.5339C201.984 73.2845 202.006 73.4487 202.414 73.8527L190.739 84.3918C188.801 83.0724 186.992 81.6363 184.993 80.3737C183.936 79.7077 179.436 77.574 179.221 76.9459L179.146 56.8368C179.178 55.8804 177.337 55.7825 177.341 54.9398C177.341 54.1791 189.381 46.7743 190.481 45.032V45.0351ZM187.393 51.9507C187.153 55.388 187.812 58.7779 187.766 62.2089C187.755 62.9475 186.727 68.0639 187.927 68.0197C188.518 67.9976 193.831 60.4476 194.479 59.406L192.749 57.1587L187.393 51.9507Z" fill="#FFB600"/>
<path d="M269.316 50.3189C269.556 50.1927 269.649 48.9743 271.154 49.4288C271.25 49.9402 270.878 50.281 270.591 50.663C269.878 51.6004 264.096 57.6606 263.405 57.891C261.94 58.3803 262.85 57.0672 262.756 56.5117C262.631 55.7542 259.081 52.7809 258.264 52.4021C257.501 52.0486 256.602 53.2228 256.193 53.7467L256.129 74.7965C256.222 75.3362 258.529 77.4099 258.855 77.4604C259.55 77.5678 260.127 76.321 260.643 76.2452C261.03 76.1884 261.843 76.9049 261.843 77.0091C261.843 77.5109 254.997 83.508 253.843 84.0793C252.822 82.8925 247.187 79.5531 246.865 78.5147C246.678 77.9118 247.789 75.6329 247.9 74.4998C248.147 72.0157 247.545 69.5664 247.513 67.2528C247.47 64.1217 248.172 55.8962 246.954 53.5605C245.482 50.7356 244.819 52.8124 243.777 52.582C243.547 52.5315 243.164 52.0802 243.236 51.7993C243.35 51.3416 249.817 46.0673 250.598 45.0289L254.13 48.1915C254.585 48.5166 255.309 50.5809 255.441 50.6598C256.347 51.1901 256.673 50.0191 257.175 49.5803C257.945 48.9017 262.627 44.6028 263.09 44.7038L268.539 50.3316C268.807 50.4041 269.054 50.4641 269.316 50.3252V50.3189Z" fill="#FFB600"/>
<path d="M442.989 39.3412C443.426 43.7096 442.907 48.9208 444.827 53.0114C445.827 55.1388 448.22 56.2877 448.001 58.5666C447.7 58.8728 445.583 56.6602 444.58 57.9195C444.204 58.393 444.308 61.8492 444.87 62.2753C446.292 63.3579 454.915 62.5846 455.17 59.8323C455.714 59.5072 456.778 60.9149 457.333 61.2274C461.672 63.6736 475.912 63.7872 480.945 62.8308C481.726 62.6825 482.64 62.0607 483.263 62.0575C483.471 62.0575 486.605 63.1181 487.182 63.3138C487.558 63.44 488.046 63.4432 488.096 63.9229C486.802 64.2354 485.452 64.5668 484.245 65.0908C483.797 65.2865 483.8 65.8357 483.607 65.8357C483.098 65.8357 481.68 64.9772 480.866 64.7783C476.485 63.7051 462.893 64.3333 458.637 65.8862C457.362 66.3533 456.434 66.9972 455.7 68.0199C454.804 65.1665 446.883 64.3522 444.985 65.5264C443.376 66.5206 444.515 73.291 447.464 68.9731C449.115 70.6807 446.414 72.2747 445.436 73.8055C443.211 77.2996 443.373 81.5796 443.305 85.484L442.456 88.5204C441.424 82.6906 443.545 75.1722 437.619 71.0216C440.804 71.2236 442.42 68.487 441.506 66.0219C441.234 65.2865 437.071 65.3559 436.903 65.5043C436.67 65.7094 437.415 68.7964 436.373 68.3418C435.197 66.4007 434.008 65.7252 432.127 64.5132C430.619 63.541 433.252 62.894 434.234 62.0544C435.108 61.3063 435.577 60.3184 436.373 59.523C437.415 59.0653 436.67 62.1554 436.903 62.3605C437.071 62.5089 441.234 62.5783 441.506 61.8429C442.448 59.3115 440.876 56.657 437.619 56.8432C443.448 52.9451 441.617 45.534 442.269 39.8147L442.986 39.3475L442.989 39.3412Z" fill="#FFB600"/>
<path d="M56.3618 39.6566C56.892 44.1766 55.7671 52.3136 59.2278 55.8898C59.5609 56.237 60.5891 56.5905 60.6572 56.8399C60.9043 57.7173 59.0916 57.5595 58.522 57.7931C57.2037 58.3297 56.7021 61.0757 57.1285 62.152C57.4831 63.0484 61.5635 62.818 61.7355 62.6696C62.2478 62.2278 60.4386 57.0103 63.8706 61.89L67.4638 64.3993C65.343 64.4404 63.0502 68.3637 62.2657 68.6541C61.1909 69.055 61.9934 66.0438 61.7355 65.8197C61.6029 65.7029 58.4146 65.7503 57.9739 65.8197C56.2364 66.1006 56.9672 70.2765 58.5937 70.9488C59.2636 71.2265 60.9975 70.9488 60.6536 71.6495C59.9156 72.3691 59.0057 72.9404 58.436 73.7958C56.3905 76.8575 56.5266 84.3128 56.3654 88.0499C56.3475 88.476 56.6592 89.3598 55.8316 89.1515C55.2369 84.4012 55.9928 79.1679 53.5711 74.7459C52.5286 72.8426 50.3827 71.7379 50.6407 69.6073C51.9089 69.5821 52.1704 71.3339 53.5066 70.7247C54.5384 70.2544 54.6351 66.5741 53.8684 65.9744C52.4856 64.8917 46.8003 65.6493 45.1452 66.4983C44.0633 67.057 43.6263 68.2375 43.4722 68.3385C42.7665 68.8151 42.6841 67.6914 42.2506 67.3884C38.4496 64.7055 25.2519 64.453 20.3942 64.8791C18.7498 65.0211 17.2524 65.6272 15.7334 66.1259L10.9043 64.0932C12.4376 64.4435 14.759 62.5276 15.4325 62.4077C15.8265 62.3382 17.6249 63.2978 18.4095 63.4745C22.6547 64.4309 35.3687 63.828 39.5387 62.5055C40.7567 62.1204 42.7915 60.5202 42.9957 60.4854C43.6227 60.3876 44.701 61.8648 45.2885 62.1867C46.7286 62.9727 52.1274 63.4209 53.5102 62.8306C54.4739 62.4171 55.1295 57.3701 52.6862 57.9951C52.0557 58.1561 50.4938 60.3371 50.6514 58.1213C50.7159 57.2186 52.4426 55.8582 53.0767 54.8861C54.3807 52.8881 54.9862 50.2967 55.2907 48.0084C55.6131 45.5811 55.3086 42.4879 55.6525 40.1269C55.717 39.6914 55.9176 39.139 56.369 39.6598L56.3618 39.6566Z" fill="#FFB600"/>
</g>
<defs>
<filter id="filter0_d_10_103" x="-9.73138e-05" y="-9.73138e-05" width="499" height="158.577" filterUnits="userSpaceOnUse" color-interpolation-filters="sRGB">
<feFlood flood-opacity="0" result="BackgroundImageFix"/>
<feColorMatrix in="SourceAlpha" type="matrix" values="0 0 0 0 0 0 0 0 0 0 0 0 0 0 0 0 0 0 127 0" result="hardAlpha"/>
<feOffset dy="4"/>
<feGaussianBlur stdDeviation="5.45"/>
<feComposite in2="hardAlpha" operator="out"/>
<feColorMatrix type="matrix" values="0 0 0 0 1 0 0 0 0 0 0 0 0 0 0 0 0 0 0.67 0"/>
<feBlend mode="normal" in2="BackgroundImageFix" result="effect1_dropShadow_10_103"/>
<feBlend mode="normal" in="SourceGraphic" in2="effect1_dropShadow_10_103" result="shape"/>
</filter>
</defs>
</svg>
